<svg width="8" height="8" viewBox="0 0 8 8" fill="none" xmlns="http://www.w3.org/2000/svg">
<g id="Icons/add_24px">
<rect width="8" height="8" stroke="black"/>
<path id="icon" d="M6.66671 3.99992C6.66671 4.18401 6.51747 4.33325 6.33337 4.33325H5.50004C4.85571 4.33325 4.33337 4.85559 4.33337 5.49992V6.33325C4.33337 6.51735 4.18414 6.66658 4.00004 6.66658C3.81595 6.66658 3.66671 6.51735 3.66671 6.33325V5.49992C3.66671 4.85559 3.14437 4.33325 2.50004 4.33325H1.66671C1.48261 4.33325 1.33337 4.18401 1.33337 3.99992C1.33337 3.81582 1.48261 3.66659 1.66671 3.66659H2.50004C3.14437 3.66659 3.66671 3.14425 3.66671 2.49992V1.66658C3.66671 1.48249 3.81595 1.33325 4.00004 1.33325C4.18414 1.33325 4.33337 1.48249 4.33337 1.66659V2.49992C4.33337 3.14425 4.85571 3.66659 5.50004 3.66659H6.33337C6.51747 3.66659 6.66671 3.81582 6.66671 3.99992Z" fill="#645FC6" stroke="#52529D"/>
</g>
</svg>
