<svg width="6" height="6" viewBox="0 0 6 6" fill="none" xmlns="http://www.w3.org/2000/svg">
<path d="M1.99136 1C1.99136 0.447715 2.43907 0 2.99136 0C3.54364 0 3.99136 0.447715 3.99136 1V5C3.99136 5.55228 3.54364 6 2.99136 6C2.43907 6 1.99136 5.55228 1.99136 5V1Z" fill="#645FC6"/>
<path d="M4.99117 2.00868C5.54343 2.00389 5.99502 2.4477 5.99981 2.99996C6.00461 3.55223 5.5608 4.00381 5.00853 4.00861L1.00869 4.04335C0.456422 4.04814 0.0048349 3.60433 3.85134e-05 3.05207C-0.00475787 2.49981 0.439052 2.04822 0.991316 2.04342L4.99117 2.00868Z" fill="#645FC6"/>
</svg>
