<svg width="6" height="6" viewBox="0 0 6 6" fill="none" xmlns="http://www.w3.org/2000/svg">
<path d="M2 1C2 0.447715 2.44772 0 3 0C3.55229 0 4 0.447715 4 1V5C4 5.55228 3.55229 6 3 6C2.44772 6 2 5.55228 2 5V1Z" fill="#D9D9D9"/>
<path d="M4.99981 2.00868C5.55207 2.00389 6.00366 2.4477 6.00846 2.99996C6.01325 3.55223 5.56944 4.00381 5.01718 4.00861L1.01733 4.04335C0.465066 4.04814 0.013479 3.60433 0.00868262 3.05207C0.00388623 2.49981 0.447696 2.04822 0.99996 2.04342L4.99981 2.00868Z" fill="#D9D9D9"/>
</svg>
