<svg width="24" height="25" viewBox="0 0 24 25" fill="none" xmlns="http://www.w3.org/2000/svg">
<g id="Icons/dark_mode">
<path id="icon" d="M9.37 5.56676C9.19 6.20676 9.1 6.87676 9.1 7.55676C9.1 11.6368 12.42 14.9568 16.5 14.9568C17.18 14.9568 17.85 14.8668 18.49 14.6868C17.45 17.2468 14.93 19.0568 12 19.0568C8.14 19.0568 5 15.9168 5 12.0568C5 9.12676 6.81 6.60676 9.37 5.56676ZM12 3.05676C7.03 3.05676 3 7.08676 3 12.0568C3 17.0268 7.03 21.0568 12 21.0568C16.97 21.0568 21 17.0268 21 12.0568C21 11.5968 20.96 11.1368 20.9 10.6968C19.92 12.0668 18.32 12.9568 16.5 12.9568C13.52 12.9568 11.1 10.5368 11.1 7.55676C11.1 5.74676 11.99 4.13676 13.36 3.15676C12.92 3.09676 12.46 3.05676 12 3.05676Z" fill="#656567"/>
</g>
</svg>
