<svg width="5" height="24" viewBox="0 0 5 24" fill="none" xmlns="http://www.w3.org/2000/svg">
<path d="M5 3C5 4.38071 3.88071 5.5 2.5 5.5C1.11929 5.5 0 4.38071 0 3C0 1.61929 1.11929 0.5 2.5 0.5C3.88071 0.5 5 1.61929 5 3Z" fill="#656567"/>
<path d="M5 12C5 13.3807 3.88071 14.5 2.5 14.5C1.11929 14.5 0 13.3807 0 12C0 10.6193 1.11929 9.5 2.5 9.5C3.88071 9.5 5 10.6193 5 12Z" fill="#656567"/>
<path d="M5 21C5 22.3807 3.88071 23.5 2.5 23.5C1.11929 23.5 0 22.3807 0 21C0 19.6193 1.11929 18.5 2.5 18.5C3.88071 18.5 5 19.6193 5 21Z" fill="#656567"/>
</svg>
