<svg width="24" height="25" viewBox="0 0 24 25" fill="none" xmlns="http://www.w3.org/2000/svg">
<g id="Icons/light_mode">
<path id="icon" d="M12 9.05676C13.65 9.05676 15 10.4068 15 12.0568C15 13.7068 13.65 15.0568 12 15.0568C10.35 15.0568 9 13.7068 9 12.0568C9 10.4068 10.35 9.05676 12 9.05676ZM12 7.05676C9.24 7.05676 7 9.29676 7 12.0568C7 14.8168 9.24 17.0568 12 17.0568C14.76 17.0568 17 14.8168 17 12.0568C17 9.29676 14.76 7.05676 12 7.05676ZM2 13.0568H4C4.55 13.0568 5 12.6068 5 12.0568C5 11.5068 4.55 11.0568 4 11.0568H2C1.45 11.0568 1 11.5068 1 12.0568C1 12.6068 1.45 13.0568 2 13.0568ZM20 13.0568H22C22.55 13.0568 23 12.6068 23 12.0568C23 11.5068 22.55 11.0568 22 11.0568H20C19.45 11.0568 19 11.5068 19 12.0568C19 12.6068 19.45 13.0568 20 13.0568ZM11 2.05676V4.05676C11 4.60676 11.45 5.05676 12 5.05676C12.55 5.05676 13 4.60676 13 4.05676V2.05676C13 1.50676 12.55 1.05676 12 1.05676C11.45 1.05676 11 1.50676 11 2.05676ZM11 20.0568V22.0568C11 22.6068 11.45 23.0568 12 23.0568C12.55 23.0568 13 22.6068 13 22.0568V20.0568C13 19.5068 12.55 19.0568 12 19.0568C11.45 19.0568 11 19.5068 11 20.0568ZM5.99 4.63676C5.6 4.24676 4.96 4.24676 4.58 4.63676C4.19 5.02676 4.19 5.66676 4.58 6.04676L5.64 7.10676C6.03 7.49676 6.67 7.49676 7.05 7.10676C7.43 6.71676 7.44 6.07676 7.05 5.69676L5.99 4.63676ZM18.36 17.0068C17.97 16.6168 17.33 16.6168 16.95 17.0068C16.56 17.3968 16.56 18.0368 16.95 18.4168L18.01 19.4768C18.4 19.8668 19.04 19.8668 19.42 19.4768C19.81 19.0868 19.81 18.4468 19.42 18.0668L18.36 17.0068ZM19.42 6.04676C19.81 5.65676 19.81 5.01676 19.42 4.63676C19.03 4.24676 18.39 4.24676 18.01 4.63676L16.95 5.69676C16.56 6.08676 16.56 6.72676 16.95 7.10676C17.34 7.48676 17.98 7.49676 18.36 7.10676L19.42 6.04676ZM7.05 18.4168C7.44 18.0268 7.44 17.3868 7.05 17.0068C6.66 16.6168 6.02 16.6168 5.64 17.0068L4.58 18.0668C4.19 18.4568 4.19 19.0968 4.58 19.4768C4.97 19.8568 5.61 19.8668 5.99 19.4768L7.05 18.4168Z" fill="#656567"/>
</g>
</svg>
