<svg width="32" height="30" viewBox="0 0 32 30" fill="none" xmlns="http://www.w3.org/2000/svg">
<g id="logo kanban">
<path d="M0 4.17089C0 2.14351 2.1069 0.5 4.70588 0.5C7.30487 0.5 9.41177 2.14351 9.41177 4.17089V25.8291C9.41177 27.8565 7.30487 29.5 4.70588 29.5C2.1069 29.5 0 27.8565 0 25.8291V4.17089Z" fill="#645FC6"/>
<path d="M11.2941 4.17089C11.2941 2.14351 13.401 0.5 16 0.5C18.599 0.5 20.7059 2.14351 20.7059 4.17089V25.8291C20.7059 27.8565 18.599 29.5 16 29.5C13.401 29.5 11.2941 27.8565 11.2941 25.8291V4.17089Z" fill="#645FC6" fill-opacity="0.8"/>
<path d="M22.5882 4.17089C22.5882 2.14351 24.6951 0.5 27.2941 0.5C29.8931 0.5 32 2.14351 32 4.17089V25.8291C32 27.8565 29.8931 29.5 27.2941 29.5C24.6951 29.5 22.5882 27.8565 22.5882 25.8291V4.17089Z" fill="#645FC6" fill-opacity="0.5"/>
</g>
</svg>
