<svg width="18" height="19" viewBox="0 0 18 19" fill="none" xmlns="http://www.w3.org/2000/svg">
<g id="Group">
<path id="Vector" d="M1.24017 0.820827L0 2.05227L1.98253 4.0348C1.0655 5.41471 0.532751 7.06537 0.532751 8.84703C0.532751 13.668 4.44541 17.5807 9.26637 17.5807C11.048 17.5807 12.6987 17.0479 14.0786 16.1309L16.0611 18.1134L17.2926 16.882L1.24017 0.820827ZM9.26637 15.8339C5.41485 15.8339 2.27948 12.6986 2.27948 8.84703C2.27948 7.55445 2.63755 6.34921 3.25764 5.30118L12.8122 14.8558C11.7642 15.4758 10.559 15.8339 9.26637 15.8339ZM5.72052 2.83829L4.45415 1.56318C5.83406 0.646155 7.48472 0.113403 9.26637 0.113403C14.0873 0.113403 18 4.02607 18 8.84703C18 10.6287 17.4672 12.2793 16.5502 13.6593L15.2751 12.3841C15.8952 11.3448 16.2533 10.1396 16.2533 8.84703C16.2533 4.9955 13.1179 1.86013 9.26637 1.86013C7.9738 1.86013 6.76856 2.21821 5.72052 2.83829Z" fill="#656567"/>
</g>
</svg>
